<?xml version="1.0" encoding="UTF-8" standalone="no"?>
<svg
   xmlns:dc="http://purl.org/dc/elements/1.1/"
   xmlns:cc="http://creativecommons.org/ns#"
   xmlns:rdf="http://www.w3.org/1999/02/22-rdf-syntax-ns#"
   xmlns:svg="http://www.w3.org/2000/svg"
   xmlns="http://www.w3.org/2000/svg"
   xmlns:xlink="http://www.w3.org/1999/xlink"
   version="1.1"
   id="svg2"
   viewBox="0 0 200 100"
   height="100"
   width="200">
  <defs
     id="defs4">
    <linearGradient
       id="linearGradient4827">
      <stop
         id="stop4829"
         offset="0"
         style="stop-color:#ffffff;stop-opacity:1;" />
      <stop
         id="stop4831"
         offset="1"
         style="stop-color:#ffffff;stop-opacity:0;" />
    </linearGradient>
    <linearGradient
       id="linearGradient4809">
      <stop
         id="stop4811"
         offset="0"
         style="stop-color:#000000;stop-opacity:1;" />
      <stop
         id="stop4813"
         offset="1"
         style="stop-color:#000000;stop-opacity:0;" />
    </linearGradient>
    <filter
       height="1.10575"
       y="-0.052875013"
       width="1.0545806"
       x="-0.027290319"
       id="filter4795"
       style="color-interpolation-filters:sRGB">
      <feGaussianBlur
         id="feGaussianBlur4797"
         stdDeviation="1.7624998" />
    </filter>
    <linearGradient
       gradientUnits="userSpaceOnUse"
       y2="962.46112"
       x2="112.3782"
       y1="1059.4358"
       x1="112.3782"
       id="linearGradient4815"
       xlink:href="#linearGradient4809" />
    <linearGradient
       gradientUnits="userSpaceOnUse"
       y2="1021.1655"
       x2="69.84095"
       y1="947.87341"
       x1="112.15614"
       id="linearGradient4833"
       xlink:href="#linearGradient4827" />
  </defs>
  <metadata
     id="metadata7">
    <rdf:RDF>
      <cc:Work
         rdf:about="">
        <dc:format>image/svg+xml</dc:format>
        <dc:type
           rdf:resource="http://purl.org/dc/dcmitype/StillImage" />
        <dc:title></dc:title>
      </cc:Work>
    </rdf:RDF>
  </metadata>
  <g
     transform="translate(0,-952.36213)"
     id="layer1">
    <g
       id="g4745"
       style="fill:#000000;fill-opacity:1;filter:url(#filter4795)">
      <path
         d="m 71.337137,1042.3621 0,-17.9999 0.709759,0 -6.489227,-7.1112 -6.489227,7.1112 0.608365,0 0,17.9999 -34.676807,0 0,-17.9999 6.894804,0 20.076046,-22.0001 -20.076046,-21.99998 -6.894804,0 0,-17.99999 34.676807,0 0,17.99999 -0.608365,0 6.489227,7.11111 6.489227,-7.11111 -0.709759,0 0,-17.99999 33.662863,0 0,17.99999 -5.88086,0 -19.974653,21.99998 19.974653,22.0001 5.88086,0 0,17.9999 -33.662863,0 z m 32.953103,-17.2223 -5.475284,0 -20.785804,-22.7777 20.785804,-22.77776 5.475284,0 0,-16.44443 -32.243344,0 0,16.44443 1.825094,0 -8.314321,9.11112 -8.314322,-9.11112 1.723701,0 0,-16.44443 -33.257289,0 0,16.44443 6.489227,0 20.785806,22.77776 -20.785806,22.7777 -6.489227,0 0,16.4446 33.257289,0 0,-16.4446 -1.723701,0 8.314322,-9.111 8.314321,9.111 -1.825094,0 0,16.4446 32.243344,0 0,-16.4446 z m -28.897337,12.7779 0,-9.1111 6.387833,0 -16.223067,-17.889 -16.324461,17.889 6.387832,0 0,9.1111 -26.565273,0 0,-9.1111 4.562738,0 24.030419,-26.4445 -24.030419,-26.44442 -4.562738,0 0,-9.11111 26.565273,0 0,9.11111 -6.387832,0 16.324461,17.88889 16.223067,-17.88889 -6.387833,0 0,-9.11111 25.652727,0 0,9.11111 -3.650191,0 -24.030419,26.44442 24.030419,26.4445 3.650191,0 0,9.1111 -25.652727,0 z"
         style="font-style:normal;font-variant:normal;font-weight:100;font-stretch:normal;font-size:medium;line-height:125%;font-family:Graduate;-inkscape-font-specification:'Graduate Thin';letter-spacing:0px;word-spacing:0px;fill:#000000;fill-opacity:1;stroke:none;stroke-width:1px;stroke-linecap:butt;stroke-linejoin:miter;stroke-opacity:1"
         id="path4747" />
      <path
         d="m 100,1022.3621 0,-5.1794 2.54473,0 0,-29.64116 -2.54473,0 0,-5.17941 12.13186,0 0,5.17941 -2.54473,0 0,29.64116 2.54473,0 0,5.1794 -12.13186,0 z"
         style="font-style:normal;font-variant:normal;font-weight:100;font-stretch:normal;font-size:medium;line-height:125%;font-family:Graduate;-inkscape-font-specification:'Graduate Thin';letter-spacing:0px;word-spacing:0px;fill:#000000;fill-opacity:1;stroke:none;stroke-width:1px;stroke-linecap:butt;stroke-linejoin:miter;stroke-opacity:1"
         id="path4749" />
      <path
         d="m 136.73586,1022.3621 -16.45198,0 -5.62208,-5.9282 0,-28.14353 5.62208,-5.92824 16.45198,0 5.62209,5.92824 0,28.14353 -5.62209,5.9282 z m -1.42031,-32.01245 -2.60391,-2.80811 -8.40353,0 -2.60392,2.80811 0,24.08735 2.60392,2.7457 8.40353,0 2.60391,-2.7457 0,-24.08735 z"
         style="font-style:normal;font-variant:normal;font-weight:100;font-stretch:normal;font-size:medium;line-height:125%;font-family:Graduate;-inkscape-font-specification:'Graduate Thin';letter-spacing:0px;word-spacing:0px;fill:#000000;fill-opacity:1;stroke:none;stroke-width:1px;stroke-linecap:butt;stroke-linejoin:miter;stroke-opacity:1"
         id="path4751" />
      <path
         d="m 169.88025,1022.3621 -15.44593,-27.08265 0,21.90325 2.54474,0 0,5.1794 -12.13186,0 0,-5.1794 2.54473,0 0,-29.64116 -2.54473,0 0,-5.17941 9.82384,0 15.74183,27.64437 0,-22.46496 -2.54473,0 0,-5.17941 12.13186,0 0,5.17941 -2.54473,0 0,29.64116 2.54473,0 0,5.1794 -10.11975,0 z"
         style="font-style:normal;font-variant:normal;font-weight:100;font-stretch:normal;font-size:medium;line-height:125%;font-family:Graduate;-inkscape-font-specification:'Graduate Thin';letter-spacing:0px;word-spacing:0px;fill:#000000;fill-opacity:1;stroke:none;stroke-width:1px;stroke-linecap:butt;stroke-linejoin:miter;stroke-opacity:1"
         id="path4753" />
    </g>
    <g
       style="fill:#ffffff;fill-opacity:1"
       id="g4739">
      <path
         id="path4562"
         style="font-style:normal;font-variant:normal;font-weight:100;font-stretch:normal;font-size:medium;line-height:125%;font-family:Graduate;-inkscape-font-specification:'Graduate Thin';letter-spacing:0px;word-spacing:0px;fill:#ffffff;fill-opacity:1;stroke:none;stroke-width:1px;stroke-linecap:butt;stroke-linejoin:miter;stroke-opacity:1"
         d="m 71.337137,1042.3621 0,-17.9999 0.709759,0 -6.489227,-7.1112 -6.489227,7.1112 0.608365,0 0,17.9999 -34.676807,0 0,-17.9999 6.894804,0 20.076046,-22.0001 -20.076046,-21.99998 -6.894804,0 0,-17.99999 34.676807,0 0,17.99999 -0.608365,0 6.489227,7.11111 6.489227,-7.11111 -0.709759,0 0,-17.99999 33.662863,0 0,17.99999 -5.88086,0 -19.974653,21.99998 19.974653,22.0001 5.88086,0 0,17.9999 -33.662863,0 z m 32.953103,-17.2223 -5.475284,0 -20.785804,-22.7777 20.785804,-22.77776 5.475284,0 0,-16.44443 -32.243344,0 0,16.44443 1.825094,0 -8.314321,9.11112 -8.314322,-9.11112 1.723701,0 0,-16.44443 -33.257289,0 0,16.44443 6.489227,0 20.785806,22.77776 -20.785806,22.7777 -6.489227,0 0,16.4446 33.257289,0 0,-16.4446 -1.723701,0 8.314322,-9.111 8.314321,9.111 -1.825094,0 0,16.4446 32.243344,0 0,-16.4446 z m -28.897337,12.7779 0,-9.1111 6.387833,0 -16.223067,-17.889 -16.324461,17.889 6.387832,0 0,9.1111 -26.565273,0 0,-9.1111 4.562738,0 24.030419,-26.4445 -24.030419,-26.44442 -4.562738,0 0,-9.11111 26.565273,0 0,9.11111 -6.387832,0 16.324461,17.88889 16.223067,-17.88889 -6.387833,0 0,-9.11111 25.652727,0 0,9.11111 -3.650191,0 -24.030419,26.44442 24.030419,26.4445 3.650191,0 0,9.1111 -25.652727,0 z" />
      <path
         id="path4552"
         style="font-style:normal;font-variant:normal;font-weight:100;font-stretch:normal;font-size:medium;line-height:125%;font-family:Graduate;-inkscape-font-specification:'Graduate Thin';letter-spacing:0px;word-spacing:0px;fill:#ffffff;fill-opacity:1;stroke:none;stroke-width:1px;stroke-linecap:butt;stroke-linejoin:miter;stroke-opacity:1"
         d="m 100,1022.3621 0,-5.1794 2.54473,0 0,-29.64116 -2.54473,0 0,-5.17941 12.13186,0 0,5.17941 -2.54473,0 0,29.64116 2.54473,0 0,5.1794 -12.13186,0 z" />
      <path
         id="path4554"
         style="font-style:normal;font-variant:normal;font-weight:100;font-stretch:normal;font-size:medium;line-height:125%;font-family:Graduate;-inkscape-font-specification:'Graduate Thin';letter-spacing:0px;word-spacing:0px;fill:#ffffff;fill-opacity:1;stroke:none;stroke-width:1px;stroke-linecap:butt;stroke-linejoin:miter;stroke-opacity:1"
         d="m 136.73586,1022.3621 -16.45198,0 -5.62208,-5.9282 0,-28.14353 5.62208,-5.92824 16.45198,0 5.62209,5.92824 0,28.14353 -5.62209,5.9282 z m -1.42031,-32.01245 -2.60391,-2.80811 -8.40353,0 -2.60392,2.80811 0,24.08735 2.60392,2.7457 8.40353,0 2.60391,-2.7457 0,-24.08735 z" />
      <path
         id="path4556"
         style="font-style:normal;font-variant:normal;font-weight:100;font-stretch:normal;font-size:medium;line-height:125%;font-family:Graduate;-inkscape-font-specification:'Graduate Thin';letter-spacing:0px;word-spacing:0px;fill:#ffffff;fill-opacity:1;stroke:none;stroke-width:1px;stroke-linecap:butt;stroke-linejoin:miter;stroke-opacity:1"
         d="m 169.88025,1022.3621 -15.44593,-27.08265 0,21.90325 2.54474,0 0,5.1794 -12.13186,0 0,-5.1794 2.54473,0 0,-29.64116 -2.54473,0 0,-5.17941 9.82384,0 15.74183,27.64437 0,-22.46496 -2.54473,0 0,-5.17941 12.13186,0 0,5.17941 -2.54473,0 0,29.64116 2.54473,0 0,5.1794 -10.11975,0 z" />
    </g>
    <g
       style="fill:url(#linearGradient4815);fill-opacity:1;opacity:0.15"
       id="g4799">
      <path
         id="path4801"
         style="font-style:normal;font-variant:normal;font-weight:100;font-stretch:normal;font-size:medium;line-height:125%;font-family:Graduate;-inkscape-font-specification:'Graduate Thin';letter-spacing:0px;word-spacing:0px;fill:url(#linearGradient4815);fill-opacity:1;stroke:none;stroke-width:1px;stroke-linecap:butt;stroke-linejoin:miter;stroke-opacity:1"
         d="m 71.337137,1042.3621 0,-17.9999 0.709759,0 -6.489227,-7.1112 -6.489227,7.1112 0.608365,0 0,17.9999 -34.676807,0 0,-17.9999 6.894804,0 20.076046,-22.0001 -20.076046,-21.99998 -6.894804,0 0,-17.99999 34.676807,0 0,17.99999 -0.608365,0 6.489227,7.11111 6.489227,-7.11111 -0.709759,0 0,-17.99999 33.662863,0 0,17.99999 -5.88086,0 -19.974653,21.99998 19.974653,22.0001 5.88086,0 0,17.9999 -33.662863,0 z m 32.953103,-17.2223 -5.475284,0 -20.785804,-22.7777 20.785804,-22.77776 5.475284,0 0,-16.44443 -32.243344,0 0,16.44443 1.825094,0 -8.314321,9.11112 -8.314322,-9.11112 1.723701,0 0,-16.44443 -33.257289,0 0,16.44443 6.489227,0 20.785806,22.77776 -20.785806,22.7777 -6.489227,0 0,16.4446 33.257289,0 0,-16.4446 -1.723701,0 8.314322,-9.111 8.314321,9.111 -1.825094,0 0,16.4446 32.243344,0 0,-16.4446 z m -28.897337,12.7779 0,-9.1111 6.387833,0 -16.223067,-17.889 -16.324461,17.889 6.387832,0 0,9.1111 -26.565273,0 0,-9.1111 4.562738,0 24.030419,-26.4445 -24.030419,-26.44442 -4.562738,0 0,-9.11111 26.565273,0 0,9.11111 -6.387832,0 16.324461,17.88889 16.223067,-17.88889 -6.387833,0 0,-9.11111 25.652727,0 0,9.11111 -3.650191,0 -24.030419,26.44442 24.030419,26.4445 3.650191,0 0,9.1111 -25.652727,0 z" />
      <path
         id="path4803"
         style="font-style:normal;font-variant:normal;font-weight:100;font-stretch:normal;font-size:medium;line-height:125%;font-family:Graduate;-inkscape-font-specification:'Graduate Thin';letter-spacing:0px;word-spacing:0px;fill:url(#linearGradient4815);fill-opacity:1;stroke:none;stroke-width:1px;stroke-linecap:butt;stroke-linejoin:miter;stroke-opacity:1"
         d="m 100,1022.3621 0,-5.1794 2.54473,0 0,-29.64116 -2.54473,0 0,-5.17941 12.13186,0 0,5.17941 -2.54473,0 0,29.64116 2.54473,0 0,5.1794 -12.13186,0 z" />
      <path
         id="path4805"
         style="font-style:normal;font-variant:normal;font-weight:100;font-stretch:normal;font-size:medium;line-height:125%;font-family:Graduate;-inkscape-font-specification:'Graduate Thin';letter-spacing:0px;word-spacing:0px;fill:url(#linearGradient4815);fill-opacity:1;stroke:none;stroke-width:1px;stroke-linecap:butt;stroke-linejoin:miter;stroke-opacity:1"
         d="m 136.73586,1022.3621 -16.45198,0 -5.62208,-5.9282 0,-28.14353 5.62208,-5.92824 16.45198,0 5.62209,5.92824 0,28.14353 -5.62209,5.9282 z m -1.42031,-32.01245 -2.60391,-2.80811 -8.40353,0 -2.60392,2.80811 0,24.08735 2.60392,2.7457 8.40353,0 2.60391,-2.7457 0,-24.08735 z" />
      <path
         id="path4807"
         style="font-style:normal;font-variant:normal;font-weight:100;font-stretch:normal;font-size:medium;line-height:125%;font-family:Graduate;-inkscape-font-specification:'Graduate Thin';letter-spacing:0px;word-spacing:0px;fill:url(#linearGradient4815);fill-opacity:1;stroke:none;stroke-width:1px;stroke-linecap:butt;stroke-linejoin:miter;stroke-opacity:1"
         d="m 169.88025,1022.3621 -15.44593,-27.08265 0,21.90325 2.54474,0 0,5.1794 -12.13186,0 0,-5.1794 2.54473,0 0,-29.64116 -2.54473,0 0,-5.17941 9.82384,0 15.74183,27.64437 0,-22.46496 -2.54473,0 0,-5.17941 12.13186,0 0,5.17941 -2.54473,0 0,29.64116 2.54473,0 0,5.1794 -10.11975,0 z" />
    </g>
    <g
       id="g4817"
       style="fill:url(#linearGradient4833);fill-opacity:1;opacity:1">
      <path
         d="m 71.337137,1042.3621 0,-17.9999 0.709759,0 -6.489227,-7.1112 -6.489227,7.1112 0.608365,0 0,17.9999 -34.676807,0 0,-17.9999 6.894804,0 20.076046,-22.0001 -20.076046,-21.99998 -6.894804,0 0,-17.99999 34.676807,0 0,17.99999 -0.608365,0 6.489227,7.11111 6.489227,-7.11111 -0.709759,0 0,-17.99999 33.662863,0 0,17.99999 -5.88086,0 -19.974653,21.99998 19.974653,22.0001 5.88086,0 0,17.9999 -33.662863,0 z m 32.953103,-17.2223 -5.475284,0 -20.785804,-22.7777 20.785804,-22.77776 5.475284,0 0,-16.44443 -32.243344,0 0,16.44443 1.825094,0 -8.314321,9.11112 -8.314322,-9.11112 1.723701,0 0,-16.44443 -33.257289,0 0,16.44443 6.489227,0 20.785806,22.77776 -20.785806,22.7777 -6.489227,0 0,16.4446 33.257289,0 0,-16.4446 -1.723701,0 8.314322,-9.111 8.314321,9.111 -1.825094,0 0,16.4446 32.243344,0 0,-16.4446 z m -28.897337,12.7779 0,-9.1111 6.387833,0 -16.223067,-17.889 -16.324461,17.889 6.387832,0 0,9.1111 -26.565273,0 0,-9.1111 4.562738,0 24.030419,-26.4445 -24.030419,-26.44442 -4.562738,0 0,-9.11111 26.565273,0 0,9.11111 -6.387832,0 16.324461,17.88889 16.223067,-17.88889 -6.387833,0 0,-9.11111 25.652727,0 0,9.11111 -3.650191,0 -24.030419,26.44442 24.030419,26.4445 3.650191,0 0,9.1111 -25.652727,0 z"
         style="font-style:normal;font-variant:normal;font-weight:100;font-stretch:normal;font-size:medium;line-height:125%;font-family:Graduate;-inkscape-font-specification:'Graduate Thin';letter-spacing:0px;word-spacing:0px;fill:url(#linearGradient4833);fill-opacity:1;stroke:none;stroke-width:1px;stroke-linecap:butt;stroke-linejoin:miter;stroke-opacity:1"
         id="path4819" />
      <path
         d="m 100,1022.3621 0,-5.1794 2.54473,0 0,-29.64116 -2.54473,0 0,-5.17941 12.13186,0 0,5.17941 -2.54473,0 0,29.64116 2.54473,0 0,5.1794 -12.13186,0 z"
         style="font-style:normal;font-variant:normal;font-weight:100;font-stretch:normal;font-size:medium;line-height:125%;font-family:Graduate;-inkscape-font-specification:'Graduate Thin';letter-spacing:0px;word-spacing:0px;fill:url(#linearGradient4833);fill-opacity:1;stroke:none;stroke-width:1px;stroke-linecap:butt;stroke-linejoin:miter;stroke-opacity:1"
         id="path4821" />
      <path
         d="m 136.73586,1022.3621 -16.45198,0 -5.62208,-5.9282 0,-28.14353 5.62208,-5.92824 16.45198,0 5.62209,5.92824 0,28.14353 -5.62209,5.9282 z m -1.42031,-32.01245 -2.60391,-2.80811 -8.40353,0 -2.60392,2.80811 0,24.08735 2.60392,2.7457 8.40353,0 2.60391,-2.7457 0,-24.08735 z"
         style="font-style:normal;font-variant:normal;font-weight:100;font-stretch:normal;font-size:medium;line-height:125%;font-family:Graduate;-inkscape-font-specification:'Graduate Thin';letter-spacing:0px;word-spacing:0px;fill:url(#linearGradient4833);fill-opacity:1;stroke:none;stroke-width:1px;stroke-linecap:butt;stroke-linejoin:miter;stroke-opacity:1"
         id="path4823" />
      <path
         d="m 169.88025,1022.3621 -15.44593,-27.08265 0,21.90325 2.54474,0 0,5.1794 -12.13186,0 0,-5.1794 2.54473,0 0,-29.64116 -2.54473,0 0,-5.17941 9.82384,0 15.74183,27.64437 0,-22.46496 -2.54473,0 0,-5.17941 12.13186,0 0,5.17941 -2.54473,0 0,29.64116 2.54473,0 0,5.1794 -10.11975,0 z"
         style="font-style:normal;font-variant:normal;font-weight:100;font-stretch:normal;font-size:medium;line-height:125%;font-family:Graduate;-inkscape-font-specification:'Graduate Thin';letter-spacing:0px;word-spacing:0px;fill:url(#linearGradient4833);fill-opacity:1;stroke:none;stroke-width:1px;stroke-linecap:butt;stroke-linejoin:miter;stroke-opacity:1"
         id="path4825" />
    </g>
  </g>
</svg>
